<svg width="14" height="14" viewBox="0 0 14 14" fill="none" xmlns="http://www.w3.org/2000/svg">
  <g clip-path="url(#s03-check-clip)">
    <path d="M12.8333 6.46333V7C12.8326 8.25791 12.4253 9.48189 11.6721 10.4894C10.9189 11.4969 9.86025 12.2339 8.65396 12.5906C7.44766 12.9473 6.1584 12.9044 4.97844 12.4685C3.79848 12.0326 2.79105 11.2269 2.10639 10.1716C1.42174 9.11635 1.09654 7.86804 1.17931 6.61285C1.26208 5.35766 1.74837 4.16286 2.56566 3.20663C3.38295 2.25039 4.48746 1.58397 5.71444 1.30675C6.94143 1.02953 8.22515 1.15636 9.37417 1.66833" stroke="#C9A96A" stroke-width="1.16667" stroke-linecap="round" stroke-linejoin="round"/>
    <path d="M12.8333 2.33333L7 8.1725L5.25 6.4225" stroke="#C9A96A" stroke-width="1.16667" stroke-linecap="round" stroke-linejoin="round"/>
  </g>
  <defs>
    <clipPath id="s03-check-clip"><rect width="14" height="14" fill="#ffffff"/></clipPath>
  </defs>
</svg>
