<svg preserveAspectRatio="none" overflow="visible" style="display: block;" width="760" height="880" viewBox="0 0 760 880" fill="none" xmlns="http://www.w3.org/2000/svg">
<g id="girih" clip-path="url(#clip0_0_9)">
<rect width="760" height="880" fill="#F5F0EB"/>
<path id="Vector" opacity="0.1" d="M45 0L0 -45L-45 0L0 45L45 0Z" stroke="#96662F"/>
<path id="Vector_2" opacity="0.1" d="M135 0L90 -45L45 0L90 45L135 0Z" stroke="#96662F"/>
<path id="Vector_3" opacity="0.1" d="M225 0L180 -45L135 0L180 45L225 0Z" stroke="#96662F"/>
<path id="Vector_4" opacity="0.1" d="M315 0L270 -45L225 0L270 45L315 0Z" stroke="#96662F"/>
<path id="Vector_5" opacity="0.1" d="M405 0L360 -45L315 0L360 45L405 0Z" stroke="#96662F"/>
<path id="Vector_6" opacity="0.1" d="M495 0L450 -45L405 0L450 45L495 0Z" stroke="#96662F"/>
<path id="Vector_7" opacity="0.1" d="M585 0L540 -45L495 0L540 45L585 0Z" stroke="#96662F"/>
<path id="Vector_8" opacity="0.1" d="M675 0L630 -45L585 0L630 45L675 0Z" stroke="#96662F"/>
<path id="Vector_9" opacity="0.1" d="M765 0L720 -45L675 0L720 45L765 0Z" stroke="#96662F"/>
<path id="Vector_10" opacity="0.1" d="M90 90L45 45L0 90L45 135L90 90Z" stroke="#96662F"/>
<path id="Vector_11" opacity="0.1" d="M180 90L135 45L90 90L135 135L180 90Z" stroke="#96662F"/>
<path id="Vector_12" opacity="0.1" d="M270 90L225 45L180 90L225 135L270 90Z" stroke="#96662F"/>
<path id="Vector_13" opacity="0.1" d="M360 90L315 45L270 90L315 135L360 90Z" stroke="#96662F"/>
<path id="Vector_14" opacity="0.1" d="M450 90L405 45L360 90L405 135L450 90Z" stroke="#96662F"/>
<path id="Vector_15" opacity="0.1" d="M540 90L495 45L450 90L495 135L540 90Z" stroke="#96662F"/>
<path id="Vector_16" opacity="0.1" d="M630 90L585 45L540 90L585 135L630 90Z" stroke="#96662F"/>
<path id="Vector_17" opacity="0.1" d="M720 90L675 45L630 90L675 135L720 90Z" stroke="#96662F"/>
<path id="Vector_18" opacity="0.1" d="M810 90L765 45L720 90L765 135L810 90Z" stroke="#96662F"/>
<path id="Vector_19" opacity="0.1" d="M45 180L0 135L-45 180L0 225L45 180Z" stroke="#96662F"/>
<path id="Vector_20" opacity="0.1" d="M135 180L90 135L45 180L90 225L135 180Z" stroke="#96662F"/>
<path id="Vector_21" opacity="0.1" d="M225 180L180 135L135 180L180 225L225 180Z" stroke="#96662F"/>
<path id="Vector_22" opacity="0.1" d="M315 180L270 135L225 180L270 225L315 180Z" stroke="#96662F"/>
<path id="Vector_23" opacity="0.1" d="M405 180L360 135L315 180L360 225L405 180Z" stroke="#96662F"/>
<path id="Vector_24" opacity="0.1" d="M495 180L450 135L405 180L450 225L495 180Z" stroke="#96662F"/>
<path id="Vector_25" opacity="0.1" d="M585 180L540 135L495 180L540 225L585 180Z" stroke="#96662F"/>
<path id="Vector_26" opacity="0.1" d="M675 180L630 135L585 180L630 225L675 180Z" stroke="#96662F"/>
<path id="Vector_27" opacity="0.1" d="M765 180L720 135L675 180L720 225L765 180Z" stroke="#96662F"/>
<path id="Vector_28" opacity="0.1" d="M90 270L45 225L0 270L45 315L90 270Z" stroke="#96662F"/>
<path id="Vector_29" opacity="0.1" d="M180 270L135 225L90 270L135 315L180 270Z" stroke="#96662F"/>
<path id="Vector_30" opacity="0.1" d="M270 270L225 225L180 270L225 315L270 270Z" stroke="#96662F"/>
<path id="Vector_31" opacity="0.1" d="M360 270L315 225L270 270L315 315L360 270Z" stroke="#96662F"/>
<path id="Vector_32" opacity="0.1" d="M450 270L405 225L360 270L405 315L450 270Z" stroke="#96662F"/>
<path id="Vector_33" opacity="0.1" d="M540 270L495 225L450 270L495 315L540 270Z" stroke="#96662F"/>
<path id="Vector_34" opacity="0.1" d="M630 270L585 225L540 270L585 315L630 270Z" stroke="#96662F"/>
<path id="Vector_35" opacity="0.1" d="M720 270L675 225L630 270L675 315L720 270Z" stroke="#96662F"/>
<path id="Vector_36" opacity="0.1" d="M810 270L765 225L720 270L765 315L810 270Z" stroke="#96662F"/>
<path id="Vector_37" opacity="0.1" d="M45 360L0 315L-45 360L0 405L45 360Z" stroke="#96662F"/>
<path id="Vector_38" opacity="0.1" d="M135 360L90 315L45 360L90 405L135 360Z" stroke="#96662F"/>
<path id="Vector_39" opacity="0.1" d="M225 360L180 315L135 360L180 405L225 360Z" stroke="#96662F"/>
<path id="Vector_40" opacity="0.1" d="M315 360L270 315L225 360L270 405L315 360Z" stroke="#96662F"/>
<path id="Vector_41" opacity="0.1" d="M405 360L360 315L315 360L360 405L405 360Z" stroke="#96662F"/>
<path id="Vector_42" opacity="0.1" d="M495 360L450 315L405 360L450 405L495 360Z" stroke="#96662F"/>
<path id="Vector_43" opacity="0.1" d="M585 360L540 315L495 360L540 405L585 360Z" stroke="#96662F"/>
<path id="Vector_44" opacity="0.1" d="M675 360L630 315L585 360L630 405L675 360Z" stroke="#96662F"/>
<path id="Vector_45" opacity="0.1" d="M765 360L720 315L675 360L720 405L765 360Z" stroke="#96662F"/>
<path id="Vector_46" opacity="0.1" d="M90 450L45 405L0 450L45 495L90 450Z" stroke="#96662F"/>
<path id="Vector_47" opacity="0.1" d="M180 450L135 405L90 450L135 495L180 450Z" stroke="#96662F"/>
<path id="Vector_48" opacity="0.1" d="M270 450L225 405L180 450L225 495L270 450Z" stroke="#96662F"/>
<path id="Vector_49" opacity="0.1" d="M360 450L315 405L270 450L315 495L360 450Z" stroke="#96662F"/>
<path id="Vector_50" opacity="0.1" d="M450 450L405 405L360 450L405 495L450 450Z" stroke="#96662F"/>
<path id="Vector_51" opacity="0.1" d="M540 450L495 405L450 450L495 495L540 450Z" stroke="#96662F"/>
<path id="Vector_52" opacity="0.1" d="M630 450L585 405L540 450L585 495L630 450Z" stroke="#96662F"/>
<path id="Vector_53" opacity="0.1" d="M720 450L675 405L630 450L675 495L720 450Z" stroke="#96662F"/>
<path id="Vector_54" opacity="0.1" d="M810 450L765 405L720 450L765 495L810 450Z" stroke="#96662F"/>
<path id="Vector_55" opacity="0.1" d="M45 540L0 495L-45 540L0 585L45 540Z" stroke="#96662F"/>
<path id="Vector_56" opacity="0.1" d="M135 540L90 495L45 540L90 585L135 540Z" stroke="#96662F"/>
<path id="Vector_57" opacity="0.1" d="M225 540L180 495L135 540L180 585L225 540Z" stroke="#96662F"/>
<path id="Vector_58" opacity="0.1" d="M315 540L270 495L225 540L270 585L315 540Z" stroke="#96662F"/>
<path id="Vector_59" opacity="0.1" d="M405 540L360 495L315 540L360 585L405 540Z" stroke="#96662F"/>
<path id="Vector_60" opacity="0.1" d="M495 540L450 495L405 540L450 585L495 540Z" stroke="#96662F"/>
<path id="Vector_61" opacity="0.1" d="M585 540L540 495L495 540L540 585L585 540Z" stroke="#96662F"/>
<path id="Vector_62" opacity="0.1" d="M675 540L630 495L585 540L630 585L675 540Z" stroke="#96662F"/>
<path id="Vector_63" opacity="0.1" d="M765 540L720 495L675 540L720 585L765 540Z" stroke="#96662F"/>
<path id="Vector_64" opacity="0.1" d="M90 630L45 585L0 630L45 675L90 630Z" stroke="#96662F"/>
<path id="Vector_65" opacity="0.1" d="M180 630L135 585L90 630L135 675L180 630Z" stroke="#96662F"/>
<path id="Vector_66" opacity="0.1" d="M270 630L225 585L180 630L225 675L270 630Z" stroke="#96662F"/>
<path id="Vector_67" opacity="0.1" d="M360 630L315 585L270 630L315 675L360 630Z" stroke="#96662F"/>
<path id="Vector_68" opacity="0.1" d="M450 630L405 585L360 630L405 675L450 630Z" stroke="#96662F"/>
<path id="Vector_69" opacity="0.1" d="M540 630L495 585L450 630L495 675L540 630Z" stroke="#96662F"/>
<path id="Vector_70" opacity="0.1" d="M630 630L585 585L540 630L585 675L630 630Z" stroke="#96662F"/>
<path id="Vector_71" opacity="0.1" d="M720 630L675 585L630 630L675 675L720 630Z" stroke="#96662F"/>
<path id="Vector_72" opacity="0.1" d="M810 630L765 585L720 630L765 675L810 630Z" stroke="#96662F"/>
<path id="Vector_73" opacity="0.1" d="M45 720L0 675L-45 720L0 765L45 720Z" stroke="#96662F"/>
<path id="Vector_74" opacity="0.1" d="M135 720L90 675L45 720L90 765L135 720Z" stroke="#96662F"/>
<path id="Vector_75" opacity="0.1" d="M225 720L180 675L135 720L180 765L225 720Z" stroke="#96662F"/>
<path id="Vector_76" opacity="0.1" d="M315 720L270 675L225 720L270 765L315 720Z" stroke="#96662F"/>
<path id="Vector_77" opacity="0.1" d="M405 720L360 675L315 720L360 765L405 720Z" stroke="#96662F"/>
<path id="Vector_78" opacity="0.1" d="M495 720L450 675L405 720L450 765L495 720Z" stroke="#96662F"/>
<path id="Vector_79" opacity="0.1" d="M585 720L540 675L495 720L540 765L585 720Z" stroke="#96662F"/>
<path id="Vector_80" opacity="0.1" d="M675 720L630 675L585 720L630 765L675 720Z" stroke="#96662F"/>
<path id="Vector_81" opacity="0.1" d="M765 720L720 675L675 720L720 765L765 720Z" stroke="#96662F"/>
<path id="Vector_82" opacity="0.1" d="M90 810L45 765L0 810L45 855L90 810Z" stroke="#96662F"/>
<path id="Vector_83" opacity="0.1" d="M180 810L135 765L90 810L135 855L180 810Z" stroke="#96662F"/>
<path id="Vector_84" opacity="0.1" d="M270 810L225 765L180 810L225 855L270 810Z" stroke="#96662F"/>
<path id="Vector_85" opacity="0.1" d="M360 810L315 765L270 810L315 855L360 810Z" stroke="#96662F"/>
<path id="Vector_86" opacity="0.1" d="M450 810L405 765L360 810L405 855L450 810Z" stroke="#96662F"/>
<path id="Vector_87" opacity="0.1" d="M540 810L495 765L450 810L495 855L540 810Z" stroke="#96662F"/>
<path id="Vector_88" opacity="0.1" d="M630 810L585 765L540 810L585 855L630 810Z" stroke="#96662F"/>
<path id="Vector_89" opacity="0.1" d="M720 810L675 765L630 810L675 855L720 810Z" stroke="#96662F"/>
<path id="Vector_90" opacity="0.1" d="M810 810L765 765L720 810L765 855L810 810Z" stroke="#96662F"/>
<path id="Vector_91" opacity="0.1" d="M45 900L0 855L-45 900L0 945L45 900Z" stroke="#96662F"/>
<path id="Vector_92" opacity="0.1" d="M135 900L90 855L45 900L90 945L135 900Z" stroke="#96662F"/>
<path id="Vector_93" opacity="0.1" d="M225 900L180 855L135 900L180 945L225 900Z" stroke="#96662F"/>
<path id="Vector_94" opacity="0.1" d="M315 900L270 855L225 900L270 945L315 900Z" stroke="#96662F"/>
<path id="Vector_95" opacity="0.1" d="M405 900L360 855L315 900L360 945L405 900Z" stroke="#96662F"/>
<path id="Vector_96" opacity="0.1" d="M495 900L450 855L405 900L450 945L495 900Z" stroke="#96662F"/>
<path id="Vector_97" opacity="0.1" d="M585 900L540 855L495 900L540 945L585 900Z" stroke="#96662F"/>
<path id="Vector_98" opacity="0.1" d="M675 900L630 855L585 900L630 945L675 900Z" stroke="#96662F"/>
<path id="Vector_99" opacity="0.1" d="M765 900L720 855L675 900L720 945L765 900Z" stroke="#96662F"/>
</g>
<defs>
<clipPath id="clip0_0_9">
<rect width="760" height="880" fill="white"/>
</clipPath>
</defs>
</svg>
